<svg xmlns="http://www.w3.org/2000/svg" version="1.1" xmlns:xlink="http://www.w3.org/1999/xlink" xmlns:svgjs="http://svgjs.dev/svgjs" width="185.6854249492395" height="185.6854249492372"><svg version="1.1" xmlns="http://www.w3.org/2000/svg" viewBox="-92.84271247461973 -92.84271247461817 185.6854249492395 185.6854249492372"><g stroke-width="0.1656854249492395" class="foldedForm"><g fill="none" class="boundaries"><polygon points="-1.2789769243681803e-12,8.348877145181177e-13 -1.0658141036401503e-12,-34.314575050760986 -42.897640684347934,-34.31457505076096 -35.20623910225278,-47.63647337236779 -12.132034355966312,-34.31457505076047 -4.121147867408581e-13,-34.3145750507616 2.1316282072803006e-14,34.314575050763665 4.440892098500626e-13,-34.314575050761135 12.132034355965258,-34.314575050761285 35.206239102252844,-47.63647337236791 42.897640684347955,-34.314575050761064 1.0871303857129533e-12,-34.314575050761 1.3073986337985843e-12,8.313350008393172e-13 1.1060236948903312e-12,-14.21356237309405 14.21356237309713,2.6645352591003757e-13 31.370849898477193,-17.157287525381452 36.39610306789372,-12.13203435596461 24.264068711929383,-1.0675904604795497e-12 36.39610306789301,12.132034355963413 31.370849898476074,17.157287525380035 1.3642420526593924e-12,-14.213562373096131 1.2363443602225743e-12,-5.435651928564766e-13 1.0373923942097463e-12,34.31457505076093 68.62915010152561,34.31457505076348 51.47186257614474,51.47186257614429 34.31457505076347,34.31457505076287 25.73593128807303,42.893218813453274 13.603896932108617,42.89321881345325 13.603896932109114,47.918471982869725 1.38966830664873e-12,34.314575050762 -13.603896932106831,47.918471982870194 -13.603896932105913,42.89321881345395 -25.73593128807012,42.893218813453245 -34.314575050760766,34.31457505076264 -51.47186257614236,51.47186257614409 -68.62915010152557,34.31457505076348 -1.0018652574217413e-12,34.31457505076092 -1.1937117960769683e-12,-5.293543381412746e-13 -20.710678118657547,-7.283063041541027e-14 -14.644660940675395,6.066017177982463 -24.111652351684413,15.533008588991422 -30.54563517370166,9.099025766974105 -36.97961799571898,15.533008588991219 -46.07864376269129,6.433982822018754 -39.644660940673845,1.311839525897085e-12 -46.07864376269122,-6.433982822016082 -36.97961799571881,-15.5330085889883 -30.545635173701342,-9.099025766970604 -24.111652351684228,-15.533008588988746 -14.64466094067722,-6.066017177982102 -20.71067811865938,1.0196288258157438e-12" class="boundary"></polygon></g><g stroke="black" stroke-linejoin="bevel" class="faces"><polygon points="-34.31457505076262,48.52813742385709 1.3063262845784475e-14,82.84271247461902 -58.578643762691016,58.578643762690774" index="32" class="front" data-side="front" fill="#1c1c1c"></polygon><polygon points="-34.31457505076262,48.52813742385709 -58.578643762691016,58.578643762690774 -34.31457505076246,68.62915010152388" index="33" class="back" data-side="back" fill="#ffe59e"></polygon><polygon points="-34.31457505076262,48.52813742385709 -34.31457505076246,68.62915010152388 -58.578643762690916,58.578643762690675" index="34" class="front" data-side="front" fill="#1c1c1c"></polygon><polygon points="-34.31457505076262,48.52813742385709 -58.578643762690916,58.578643762690675 1.3063262845784475e-14,82.84271247461902" index="35" class="back" data-side="back" fill="#ffe59e"></polygon><polygon points="58.57864376269131,58.578643762691485 1.3063262845784475e-14,82.84271247461902 34.31457505076261,48.52813742385708" index="28" class="front" data-side="front" fill="#1c1c1c"></polygon><polygon points="58.57864376269131,58.578643762691485 34.31457505076261,48.52813742385708 34.31457505076251,68.62915010152389" index="29" class="back" data-side="back" fill="#ffe59e"></polygon><polygon points="34.31457505076251,68.62915010152389 34.31457505076261,48.52813742385708 58.57864376269095,58.57864376269065" index="30" class="front" data-side="front" fill="#1c1c1c"></polygon><polygon points="58.57864376269095,58.57864376269065 34.31457505076261,48.52813742385708 1.3063262845784475e-14,82.84271247461902" index="31" class="back" data-side="back" fill="#ffe59e"></polygon><polygon points="-82.84271247461973,-2.8105144882261367e-14 -48.52813742385781,-82.84271247461817 48.52813742385785,-82.84271247461817 82.84271247461976,-2.1409797372002912e-14 58.57864376269095,58.57864376269065 1.3063262845784475e-14,82.84271247461902 -58.578643762690916,58.578643762690675" index="3" class="front" data-side="front" fill="#1c1c1c"></polygon><polygon points="-48.52813742385781,-82.84271247461817 2.1316282072803006e-14,34.314575050763665 48.52813742385785,-82.84271247461817" index="7" class="back" data-side="back" fill="#ffe59e"></polygon><polygon points="-48.52813742385781,-82.84271247461817 -4.121147867408581e-13,-34.3145750507616 2.1316282072803006e-14,34.314575050763665" index="6" class="front" data-side="front" fill="#1c1c1c"></polygon><polygon points="-82.84271247461973,-2.8105144882261367e-14 -1.2789769243681803e-12,8.348877145181177e-13 -1.0658141036401503e-12,-34.314575050760986 -48.52813742385781,-82.84271247461817" index="2" class="back" data-side="back" fill="#ffe59e"></polygon><polygon points="-82.84271247461973,-2.8105144882261367e-14 -52.512626584708784,-30.330085889911334 -14.64466094067592,-14.644660940673905 -1.2789769243681803e-12,8.348877145181177e-13" index="1" class="front" data-side="front" fill="#1c1c1c"></polygon><polygon points="-82.84271247461973,-2.8105144882261367e-14 -58.578643762690916,58.578643762690675 -34.31457505076246,68.62915010152388 -1.0018652574217413e-12,34.31457505076092 -1.1937117960769683e-12,-5.293543381412746e-13 -14.644660940675415,-14.644660940674367 -52.512626584708784,-30.330085889911334" index="0" class="back" data-side="back" fill="#ffe59e"></polygon><polygon points="-48.52813742385781,-82.84271247461817 -1.0658141036401503e-12,-34.314575050760986 -42.897640684347934,-34.31457505076096 -48.528137423858276,-44.06688147544312" index="4" class="front" data-side="front" fill="#1c1c1c"></polygon><polygon points="-48.52813742385781,-82.84271247461817 -48.528137423858276,-44.06688147544312 -12.132034355966312,-34.31457505076047 -4.121147867408581e-13,-34.3145750507616" index="5" class="back" data-side="back" fill="#ffe59e"></polygon><polygon points="-1.1937117960769683e-12,-5.293543381412746e-13 -20.710678118657547,-7.283063041541027e-14 -14.644660940675415,-14.644660940674367" index="22" class="front" data-side="front" fill="#1c1c1c"></polygon><polygon points="-1.2789769243681803e-12,8.348877145181177e-13 -14.64466094067592,-14.644660940673905 -20.71067811865938,1.0196288258157438e-12" index="8" class="back" data-side="back" fill="#ffe59e"></polygon><polygon points="2.1316282072803006e-14,34.314575050763665 4.440892098500626e-13,-34.314575050761135 48.52813742385785,-82.84271247461817" index="9" class="front" data-side="front" fill="#1c1c1c"></polygon><polygon points="1.3073986337985843e-12,8.313350008393172e-13 82.84271247461976,-2.1409797372002912e-14 48.52813742385785,-82.84271247461817 1.0871303857129533e-12,-34.314575050761" index="11" class="back" data-side="back" fill="#ffe59e"></polygon><polygon points="1.3073986337985843e-12,8.313350008393172e-13 1.1060236948903312e-12,-14.21356237309405 48.52813742385809,-34.314575050762116 82.84271247461976,-2.1409797372002912e-14" index="10" class="front" data-side="front" fill="#1c1c1c"></polygon><polygon points="1.0871303857129533e-12,-34.314575050761 48.52813742385785,-82.84271247461817 48.5281374238583,-44.0668814754431 42.897640684347955,-34.314575050761064" index="12" class="front" data-side="front" fill="#1c1c1c"></polygon><polygon points="82.84271247461976,-2.1409797372002912e-14 48.52813742385809,-34.314575050762116 1.3642420526593924e-12,-14.213562373096131 1.2363443602225743e-12,-5.435651928564766e-13 1.0373923942097463e-12,34.31457505076093 34.31457505076251,68.62915010152389 58.57864376269095,58.57864376269065" index="13" class="back" data-side="back" fill="#ffe59e"></polygon><polygon points="48.52813742385785,-82.84271247461817 4.440892098500626e-13,-34.314575050761135 12.132034355965258,-34.314575050761285 48.5281374238583,-44.0668814754431" index="14" class="back" data-side="back" fill="#ffe59e"></polygon><polygon points="-48.528137423858276,-44.06688147544312 -35.20623910225278,-47.63647337236779 -12.132034355966312,-34.31457505076047" index="16" class="front" data-side="front" fill="#1c1c1c"></polygon><polygon points="-48.528137423858276,-44.06688147544312 -42.897640684347934,-34.31457505076096 -35.20623910225278,-47.63647337236779" index="15" class="back" data-side="back" fill="#ffe59e"></polygon><polygon points="48.5281374238583,-44.0668814754431 12.132034355965258,-34.314575050761285 35.206239102252844,-47.63647337236791" index="18" class="front" data-side="front" fill="#1c1c1c"></polygon><polygon points="42.897640684347955,-34.314575050761064 48.5281374238583,-44.0668814754431 35.206239102252844,-47.63647337236791" index="17" class="back" data-side="back" fill="#ffe59e"></polygon><polygon points="-1.0018652574217413e-12,34.31457505076092 -34.31457505076246,68.62915010152388 -58.578643762691016,58.578643762690774 -68.62915010152557,34.31457505076348" index="19" class="front" data-side="front" fill="#1c1c1c"></polygon><polygon points="1.0373923942097463e-12,34.31457505076093 68.62915010152561,34.31457505076348 58.57864376269131,58.578643762691485 34.31457505076251,68.62915010152389" index="23" class="front" data-side="front" fill="#1c1c1c"></polygon><polygon points="-34.314575050760766,34.31457505076264 -51.47186257614236,51.47186257614409 51.47186257614474,51.47186257614429 34.31457505076347,34.31457505076287" index="27" class="back" data-side="back" fill="#ffe59e"></polygon><polygon points="-68.62915010152557,34.31457505076348 68.62915010152561,34.31457505076348 51.47186257614474,51.47186257614429 -51.47186257614236,51.47186257614409" index="20" class="front" data-side="front" fill="#1c1c1c"></polygon><polygon points="-68.62915010152557,34.31457505076348 -58.578643762691016,58.578643762690774 1.3063262845784475e-14,82.84271247461902 58.57864376269131,58.578643762691485 68.62915010152561,34.31457505076348" index="21" class="back" data-side="back" fill="#ffe59e"></polygon><polygon points="-25.73593128807012,42.893218813453245 -5.025253169418022,51.47186257614342 -13.603896932105913,42.89321881345395" index="24" class="back" data-side="back" fill="#ffe59e"></polygon><polygon points="-13.603896932105913,42.89321881345395 -5.025253169418022,51.47186257614342 -13.603896932106831,47.918471982870194" index="26" class="front" data-side="front" fill="#1c1c1c"></polygon><polygon points="13.603896932108617,42.89321881345325 5.025253169418903,51.47186257614345 25.73593128807303,42.893218813453274" index="37" class="back" data-side="back" fill="#ffe59e"></polygon><polygon points="13.603896932108617,42.89321881345325 13.603896932109114,47.918471982869725 5.025253169418903,51.47186257614345" index="36" class="front" data-side="front" fill="#1c1c1c"></polygon><polygon points="5.025253169418903,51.47186257614345 13.603896932109114,47.918471982869725 1.38966830664873e-12,34.314575050762 -13.603896932106831,47.918471982870194 -5.025253169418022,51.47186257614342" index="38" class="back" data-side="back" fill="#ffe59e"></polygon><polygon points="-25.73593128807012,42.893218813453245 -34.314575050760766,34.31457505076264 34.31457505076347,34.31457505076287 25.73593128807303,42.893218813453274 5.025253169418903,51.47186257614345 -5.025253169418022,51.47186257614342" index="25" class="front" data-side="front" fill="#1c1c1c"></polygon><polygon points="-30.54563517370166,9.099025766974105 -36.97961799571898,15.533008588991219 -30.54563517370166,15.533008588991356" index="46" class="back" data-side="back" fill="#ffe59e"></polygon><polygon points="-30.54563517370166,9.099025766974105 -30.54563517370166,15.533008588991356 -36.97961799571896,15.533008588991358" index="47" class="front" data-side="front" fill="#1c1c1c"></polygon><polygon points="-30.54563517370166,9.099025766974105 -36.97961799571896,15.533008588991358 -24.111652351684413,15.533008588991422" index="48" class="back" data-side="back" fill="#ffe59e"></polygon><polygon points="-20.71067811865938,1.0196288258157438e-12 -14.64466094067708,1.0818013151947525e-12 -14.64466094067722,-6.066017177982102" index="52" class="back" data-side="back" fill="#ffe59e"></polygon><polygon points="-20.71067811865938,1.0196288258157438e-12 -14.64466094067592,-14.644660940673905 -14.64466094067708,1.0818013151947525e-12" index="51" class="front" data-side="front" fill="#1c1c1c"></polygon><polygon points="-14.644660940675395,6.066017177982463 -14.644660940675415,-14.644660940674367 -20.710678118657547,-7.283063041541027e-14" index="53" class="back" data-side="back" fill="#ffe59e"></polygon><polygon points="-52.512626584708784,-30.330085889911334 -14.644660940675415,-14.644660940674367 -14.644660940675395,6.066017177982463 -24.111652351684413,15.533008588991422 -36.97961799571896,15.533008588991358 -52.512626584708876,1.2612133559741778e-12" index="39" class="front" data-side="front" fill="#1c1c1c"></polygon><polygon points="-52.512626584708784,-30.330085889911334 -52.512626584708876,1.2612133559741778e-12 -14.64466094067708,1.0818013151947525e-12 -14.64466094067592,-14.644660940673905" index="40" class="back" data-side="back" fill="#ffe59e"></polygon><polygon points="-30.545635173701342,-9.099025766970604 -30.545635173701367,-15.53300858898815 -36.97961799571881,-15.5330085889883" index="42" class="back" data-side="back" fill="#ffe59e"></polygon><polygon points="-30.545635173701342,-9.099025766970604 -36.979617995719,-15.533008588988165 -30.545635173701367,-15.53300858898815" index="41" class="front" data-side="front" fill="#1c1c1c"></polygon><polygon points="-30.545635173701342,-9.099025766970604 -24.111652351684228,-15.533008588988746 -36.979617995719,-15.533008588988165" index="43" class="back" data-side="back" fill="#ffe59e"></polygon><polygon points="-36.979617995719,-15.533008588988165 -24.111652351684228,-15.533008588988746 -14.64466094067722,-6.066017177982102 -14.64466094067708,1.0818013151947525e-12 -52.512626584708876,1.2612133559741778e-12" index="45" class="front" data-side="front" fill="#1c1c1c"></polygon><polygon points="-36.979617995719,-15.533008588988165 -52.512626584708876,1.2612133559741778e-12 -36.97961799571896,15.533008588991358 -30.54563517370166,15.533008588991356 -30.545635173701367,-15.53300858898815" index="44" class="back" data-side="back" fill="#ffe59e"></polygon><polygon points="-39.644660940673845,1.311839525897085e-12 -46.07864376269122,-6.433982822016082 -46.07864376269129,6.433982822018754" index="49" class="back" data-side="back" fill="#ffe59e"></polygon><polygon points="-46.07864376269129,6.433982822018754 -46.07864376269122,-6.433982822016082 -36.97961799571881,-15.5330085889883 -30.545635173701367,-15.53300858898815 -30.54563517370166,15.533008588991356 -36.97961799571898,15.533008588991219" index="50" class="front" data-side="front" fill="#1c1c1c"></polygon><polygon points="48.52813742385809,-34.314575050762116 48.528137423857316,-1.5987211554602254e-13 31.370849898476074,17.157287525380035 1.3642420526593924e-12,-14.213562373096131" index="54" class="front" data-side="front" fill="#1c1c1c"></polygon><polygon points="48.52813742385809,-34.314575050762116 1.1060236948903312e-12,-14.21356237309405 14.21356237309713,2.6645352591003757e-13 48.528137423857316,-1.5987211554602254e-13" index="55" class="back" data-side="back" fill="#ffe59e"></polygon><polygon points="31.370849898477193,-17.157287525381452 48.528137423857316,-1.5987211554602254e-13 14.21356237309713,2.6645352591003757e-13" index="58" class="front" data-side="front" fill="#1c1c1c"></polygon><polygon points="31.370849898477193,-17.157287525381452 31.370849898476074,17.157287525380035 48.528137423857316,-1.5987211554602254e-13" index="57" class="back" data-side="back" fill="#ffe59e"></polygon><polygon points="31.370849898477193,-17.157287525381452 36.39610306789372,-12.13203435596461 36.39610306789301,12.132034355963413 31.370849898476074,17.157287525380035" index="56" class="front" data-side="front" fill="#1c1c1c"></polygon><polygon points="24.264068711929383,-1.0675904604795497e-12 36.39610306789301,12.132034355963413 36.39610306789372,-12.13203435596461" index="59" class="back" data-side="back" fill="#ffe59e"></polygon></g><g class="edges"><path d="M-1.2789769243681803e-12 8.348877145181177e-13L-1.0658141036401503e-12 -34.314575050760986M-4.121147867408581e-13 -34.3145750507616L2.1316282072803006e-14 34.314575050763665M1.3073986337985843e-12 8.313350008393172e-13L1.0871303857129533e-12 -34.314575050761M4.440892098500626e-13 -34.314575050761135L2.1316282072803006e-14 34.314575050763665M-1.0658141036401503e-12 -34.314575050760986L-42.897640684347934 -34.31457505076096M-4.121147867408581e-13 -34.3145750507616L-12.132034355966312 -34.31457505076047M1.0871303857129533e-12 -34.314575050761L42.897640684347955 -34.314575050761064M-12.132034355966312 -34.31457505076047L-35.20623910225278 -47.63647337236779M-42.897640684347934 -34.31457505076096L-35.20623910225278 -47.63647337236779M12.132034355965258 -34.314575050761285L4.440892098500626e-13 -34.314575050761135M35.206239102252844 -47.63647337236791L12.132034355965258 -34.314575050761285M42.897640684347955 -34.314575050761064L35.206239102252844 -47.63647337236791M-1.0018652574217413e-12 34.31457505076092L-68.62915010152557 34.31457505076348M-1.0018652574217413e-12 34.31457505076092L-1.1937117960769683e-12 -5.293543381412746e-13M1.0373923942097463e-12 34.31457505076093L68.62915010152561 34.31457505076348M1.0373923942097463e-12 34.31457505076093L1.2363443602225743e-12 -5.435651928564766e-13M-25.73593128807012 42.893218813453245L-13.603896932105913 42.89321881345395M-25.73593128807012 42.893218813453245L-34.314575050760766 34.31457505076264M13.603896932108617 42.89321881345325L25.73593128807303 42.893218813453274M68.62915010152561 34.31457505076348L51.47186257614474 51.47186257614429M-68.62915010152557 34.31457505076348L-51.47186257614236 51.47186257614409M51.47186257614474 51.47186257614429L34.31457505076347 34.31457505076287M-51.47186257614236 51.47186257614409L-34.314575050760766 34.31457505076264M25.73593128807303 42.893218813453274L34.31457505076347 34.31457505076287M-13.603896932106831 47.918471982870194L1.38966830664873e-12 34.314575050762M-13.603896932105913 42.89321881345395L-13.603896932106831 47.918471982870194M13.603896932109114 47.918471982869725L1.38966830664873e-12 34.314575050762M13.603896932108617 42.89321881345325L13.603896932109114 47.918471982869725M-39.644660940673845 1.311839525897085e-12L-46.07864376269129 6.433982822018754M-39.644660940673845 1.311839525897085e-12L-46.07864376269122 -6.433982822016082M-30.54563517370166 9.099025766974105L-24.111652351684413 15.533008588991422M-20.71067811865938 1.0196288258157438e-12L-14.64466094067722 -6.066017177982102M-36.97961799571881 -15.5330085889883L-30.545635173701342 -9.099025766970604M-46.07864376269122 -6.433982822016082L-36.97961799571881 -15.5330085889883M-46.07864376269129 6.433982822018754L-36.97961799571898 15.533008588991219M-24.111652351684228 -15.533008588988746L-30.545635173701342 -9.099025766970604M-36.97961799571898 15.533008588991219L-30.54563517370166 9.099025766974105M-24.111652351684413 15.533008588991422L-14.644660940675395 6.066017177982463M-24.111652351684228 -15.533008588988746L-14.64466094067722 -6.066017177982102M-14.644660940675395 6.066017177982463L-20.710678118657547 -7.283063041541027e-14M-1.2789769243681803e-12 8.348877145181177e-13L-20.71067811865938 1.0196288258157438e-12M-1.1937117960769683e-12 -5.293543381412746e-13L-20.710678118657547 -7.283063041541027e-14M31.370849898477193 -17.157287525381452L14.21356237309713 2.6645352591003757e-13M1.1060236948903312e-12 -14.21356237309405L1.3073986337985843e-12 8.313350008393172e-13M1.3642420526593924e-12 -14.213562373096131L1.2363443602225743e-12 -5.435651928564766e-13M24.264068711929383 -1.0675904604795497e-12L36.39610306789372 -12.13203435596461M1.3642420526593924e-12 -14.213562373096131L31.370849898476074 17.157287525380035M24.264068711929383 -1.0675904604795497e-12L36.39610306789301 12.132034355963413M14.21356237309713 2.6645352591003757e-13L1.1060236948903312e-12 -14.21356237309405M36.39610306789372 -12.13203435596461L31.370849898477193 -17.157287525381452M36.39610306789301 12.132034355963413L31.370849898476074 17.157287525380035" class="boundary" data-assignment="B" data-foldangle="0"></path><path d="M-82.84271247461973 -2.8105144882261367e-14L-48.52813742385781 -82.84271247461817M-4.121147867408581e-13 -34.3145750507616L-48.52813742385781 -82.84271247461817M82.84271247461976 -2.1409797372002912e-14L48.52813742385785 -82.84271247461817M48.52813742385785 -82.84271247461817L-48.52813742385781 -82.84271247461817M4.440892098500626e-13 -34.314575050761135L48.52813742385785 -82.84271247461817M-48.52813742385781 -82.84271247461817L-48.528137423858276 -44.06688147544312M-35.20623910225278 -47.63647337236779L-48.528137423858276 -44.06688147544312M-42.897640684347934 -34.31457505076096L-48.528137423858276 -44.06688147544312M48.52813742385785 -82.84271247461817L48.5281374238583 -44.0668814754431M35.206239102252844 -47.63647337236791L48.5281374238583 -44.0668814754431M42.897640684347955 -34.314575050761064L48.5281374238583 -44.0668814754431M68.62915010152561 34.31457505076348L58.57864376269131 58.578643762691485M82.84271247461976 -2.1409797372002912e-14L58.57864376269095 58.57864376269065M-34.31457505076262 48.52813742385709L1.3063262845784475e-14 82.84271247461902M-82.84271247461973 -2.8105144882261367e-14L-58.578643762690916 58.578643762690675M-68.62915010152557 34.31457505076348L-58.578643762691016 58.578643762690774M1.3063262845784475e-14 82.84271247461902L34.31457505076261 48.52813742385708M-58.578643762690916 58.578643762690675L-34.31457505076262 48.52813742385709M-34.31457505076246 68.62915010152388L-58.578643762690916 58.578643762690675M-58.578643762691016 58.578643762690774L-34.31457505076262 48.52813742385709M1.3063262845784475e-14 82.84271247461902L-58.578643762691016 58.578643762690774M58.57864376269095 58.57864376269065L34.31457505076261 48.52813742385708M34.31457505076251 68.62915010152389L58.57864376269095 58.57864376269065M58.57864376269131 58.578643762691485L34.31457505076261 48.52813742385708M1.3063262845784475e-14 82.84271247461902L58.57864376269131 58.578643762691485M68.62915010152561 34.31457505076348L-68.62915010152557 34.31457505076348M-13.603896932106831 47.918471982870194L-5.025253169418022 51.47186257614342M13.603896932109114 47.918471982869725L5.025253169418903 51.47186257614345M-82.84271247461973 -2.8105144882261367e-14L-52.512626584708784 -30.330085889911334M-30.545635173701342 -9.099025766970604L-36.979617995719 -15.533008588988165M-30.54563517370166 9.099025766974105L-36.97961799571896 15.533008588991358M-36.979617995719 -15.533008588988165L-52.512626584708876 1.2612133559741778e-12M-36.97961799571896 15.533008588991358L-52.512626584708876 1.2612133559741778e-12M-36.979617995719 -15.533008588988165L-30.545635173701367 -15.53300858898815M-36.97961799571896 15.533008588991358L-30.54563517370166 15.533008588991356M-14.64466094067592 -14.644660940673905L-1.2789769243681803e-12 8.348877145181177e-13M-14.64466094067708 1.0818013151947525e-12L-14.64466094067592 -14.644660940673905M-52.512626584708876 1.2612133559741778e-12L-52.512626584708784 -30.330085889911334M-52.512626584708784 -30.330085889911334L-14.64466094067592 -14.644660940673905M-20.710678118657547 -7.283063041541027e-14L-14.644660940675415 -14.644660940674367M48.52813742385809 -34.314575050762116L1.1060236948903312e-12 -14.21356237309405M48.52813742385809 -34.314575050762116L82.84271247461976 -2.1409797372002912e-14M48.528137423857316 -1.5987211554602254e-13L31.370849898476074 17.157287525380035M31.370849898477193 -17.157287525381452L48.528137423857316 -1.5987211554602254e-13M48.52813742385809 -34.314575050762116L48.528137423857316 -1.5987211554602254e-13M36.39610306789301 12.132034355963413L36.39610306789372 -12.13203435596461" class="mountain" data-assignment="M" data-foldangle="-180"></path><path d="M-48.52813742385781 -82.84271247461817L2.1316282072803006e-14 34.314575050763665M-1.0658141036401503e-12 -34.314575050760986L-48.52813742385781 -82.84271247461817M48.52813742385785 -82.84271247461817L2.1316282072803006e-14 34.314575050763665M1.0871303857129533e-12 -34.314575050761L48.52813742385785 -82.84271247461817M-48.528137423858276 -44.06688147544312L-12.132034355966312 -34.31457505076047M48.5281374238583 -44.0668814754431L12.132034355965258 -34.314575050761285M1.0373923942097463e-12 34.31457505076093L34.31457505076251 68.62915010152389M-1.0018652574217413e-12 34.31457505076092L-34.31457505076246 68.62915010152388M-58.578643762690916 58.578643762690675L1.3063262845784475e-14 82.84271247461902M-34.31457505076246 68.62915010152388L-34.31457505076262 48.52813742385709M-58.578643762691016 58.578643762690774L-34.31457505076246 68.62915010152388M58.57864376269095 58.57864376269065L1.3063262845784475e-14 82.84271247461902M34.31457505076251 68.62915010152389L34.31457505076261 48.52813742385708M58.57864376269131 58.578643762691485L34.31457505076251 68.62915010152389M34.31457505076347 34.31457505076287L-34.314575050760766 34.31457505076264M51.47186257614474 51.47186257614429L-51.47186257614236 51.47186257614409M5.025253169418903 51.47186257614345L-5.025253169418022 51.47186257614342M5.025253169418903 51.47186257614345L25.73593128807303 42.893218813453274M-5.025253169418022 51.47186257614342L-13.603896932105913 42.89321881345395M-5.025253169418022 51.47186257614342L-25.73593128807012 42.893218813453245M13.603896932108617 42.89321881345325L5.025253169418903 51.47186257614345M-30.545635173701367 -15.53300858898815L-36.97961799571881 -15.5330085889883M-30.545635173701367 -15.53300858898815L-30.545635173701342 -9.099025766970604M-30.54563517370166 9.099025766974105L-30.54563517370166 15.533008588991356M-30.54563517370166 15.533008588991356L-36.97961799571898 15.533008588991219M-30.54563517370166 15.533008588991356L-30.545635173701367 -15.53300858898815M-24.111652351684413 15.533008588991422L-36.97961799571896 15.533008588991358M-14.64466094067722 -6.066017177982102L-14.64466094067708 1.0818013151947525e-12M-14.64466094067708 1.0818013151947525e-12L-20.71067811865938 1.0196288258157438e-12M-20.71067811865938 1.0196288258157438e-12L-14.64466094067592 -14.644660940673905M-14.644660940675415 -14.644660940674367L-1.1937117960769683e-12 -5.293543381412746e-13M-14.644660940675415 -14.644660940674367L-52.512626584708784 -30.330085889911334M-52.512626584708876 1.2612133559741778e-12L-14.64466094067708 1.0818013151947525e-12M-46.07864376269129 6.433982822018754L-46.07864376269122 -6.433982822016082M-1.2789769243681803e-12 8.348877145181177e-13L-82.84271247461973 -2.8105144882261367e-14M-14.644660940675395 6.066017177982463L-14.644660940675415 -14.644660940674367M-24.111652351684228 -15.533008588988746L-36.979617995719 -15.533008588988165M1.3642420526593924e-12 -14.213562373096131L48.52813742385809 -34.314575050762116M1.3073986337985843e-12 8.313350008393172e-13L82.84271247461976 -2.1409797372002912e-14M48.528137423857316 -1.5987211554602254e-13L14.21356237309713 2.6645352591003757e-13M31.370849898476074 17.157287525380035L31.370849898477193 -17.157287525381452" class="valley" data-assignment="V" data-foldangle="180"></path></g></g></svg><style>@media (prefers-color-scheme: light) { :root { filter: none; } }
@media (prefers-color-scheme: dark) { :root { filter: none; } }
</style></svg>